<?xml version="1.0" standalone="no"?>
<!DOCTYPE svg PUBLIC "-//W3C//DTD SVG 20010904//EN"
 "http://www.w3.org/TR/2001/REC-SVG-20010904/DTD/svg10.dtd">
<svg version="1.0" xmlns="http://www.w3.org/2000/svg"
 width="24.000000pt" height="24.000000pt" viewBox="0 0 24.000000 24.000000"
 preserveAspectRatio="xMidYMid meet">

<g transform="translate(0.000000,24.000000) scale(0.100000,-0.100000)"
fill="#000000" stroke="none">
<path d="M68 224 c-30 -16 -58 -61 -58 -94 0 -53 57 -110 110 -110 53 0 110
57 110 110 0 34 -28 78 -60 95 -36 19 -67 19 -102 -1z m113 -33 c39 -40 39
-82 0 -122 -40 -39 -82 -39 -122 0 -20 20 -29 39 -29 61 0 43 47 90 90 90 22
0 41 -9 61 -29z"/>
<path d="M103 193 c-7 -2 -13 -12 -13 -22 0 -9 -5 -22 -11 -28 -6 -6 -9 -23
-7 -39 3 -27 6 -29 48 -29 39 0 45 3 48 23 4 27 -28 102 -42 101 -6 0 -17 -3
-23 -6z m27 -28 c0 -8 -4 -15 -10 -15 -5 0 -10 7 -10 15 0 8 5 15 10 15 6 0
10 -7 10 -15z m20 -55 c0 -16 -7 -20 -30 -20 -23 0 -30 4 -30 20 0 16 7 20 30
20 23 0 30 -4 30 -20z"/>
<path d="M110 110 c0 -5 5 -10 10 -10 6 0 10 5 10 10 0 6 -4 10 -10 10 -5 0
-10 -4 -10 -10z"/>
</g>
</svg>
