<?xml version="1.0" standalone="no"?>
<!DOCTYPE svg PUBLIC "-//W3C//DTD SVG 20010904//EN"
 "http://www.w3.org/TR/2001/REC-SVG-20010904/DTD/svg10.dtd">
<svg version="1.0" xmlns="http://www.w3.org/2000/svg"
 width="24.000000pt" height="24.000000pt" viewBox="0 0 24.000000 24.000000"
 preserveAspectRatio="xMidYMid meet">

<g transform="translate(0.000000,24.000000) scale(0.100000,-0.100000)"
fill="#000000" stroke="none">
<path d="M14 197 c-3 -8 -4 -47 -2 -88 l3 -74 105 0 105 0 0 85 0 85 -103 3
c-80 2 -104 0 -108 -11z m196 -20 c0 -7 -20 -23 -45 -35 l-45 -22 -45 22 c-72
35 -59 48 45 48 67 0 90 -3 90 -13z m-130 -57 l40 -20 40 20 c21 11 42 20 45
20 3 0 5 -20 5 -45 l0 -45 -90 0 -90 0 0 45 c0 25 2 45 5 45 3 0 24 -9 45 -20z"/>
</g>
</svg>
