<?xml version="1.0" standalone="no"?>
<!DOCTYPE svg PUBLIC "-//W3C//DTD SVG 20010904//EN"
 "http://www.w3.org/TR/2001/REC-SVG-20010904/DTD/svg10.dtd">
<svg version="1.0" xmlns="http://www.w3.org/2000/svg"
 width="24.000000pt" height="24.000000pt" viewBox="0 0 24.000000 24.000000"
 preserveAspectRatio="xMidYMid meet">

<g transform="translate(0.000000,24.000000) scale(0.100000,-0.100000)"
fill="#000000" stroke="none">
<path d="M68 214 c-30 -16 -58 -61 -58 -94 0 -53 57 -110 110 -110 53 0 110
57 110 110 0 34 -28 78 -60 95 -36 19 -67 19 -102 -1z m113 -33 c28 -28 36
-61 23 -94 -4 -12 -11 -13 -34 -4 -22 8 -26 14 -19 23 27 33 -14 90 -48 68
-21 -13 -29 -50 -14 -68 7 -9 3 -15 -19 -23 -23 -9 -30 -8 -34 4 -21 54 26
123 84 123 22 0 41 -9 61 -29z m-44 -37 c8 -21 -13 -42 -28 -27 -13 13 -5 43
11 43 6 0 13 -7 17 -16z m32 -83 c11 -7 10 -11 -7 -20 -26 -14 -58 -14 -84 0
-17 9 -18 13 -7 20 18 11 80 11 98 0z"/>
</g>
</svg>
